<mxfile host="app.diagrams.net" modified="2023-05-26T18:16:51.357Z" agent="Mozilla/5.0 (Macintosh; Intel Mac OS X 10_15_7) AppleWebKit/605.1.15 (KHTML, like Gecko) Version/16.5 Safari/605.1.15" etag="b8lftYbTF_vo367dBckv" version="21.3.3" type="google">
  <diagram name="Page-1" id="11o_kiPn9MMJqiJebwAv">
    <mxGraphModel grid="1" page="1" gridSize="10" guides="1" tooltips="1" connect="1" arrows="1" fold="1" pageScale="1" pageWidth="827" pageHeight="1169" math="1" shadow="0">
      <root>
        <mxCell id="0" />
        <mxCell id="1" parent="0" />
        <mxCell id="gPXoR4ddcRcgQdC9vsEX-28" value="" style="ellipse;whiteSpace=wrap;html=1;aspect=fixed;fillColor=none;fontFamily=Times New Roman;" vertex="1" parent="1">
          <mxGeometry x="140" y="269" width="355.14" height="355.14" as="geometry" />
        </mxCell>
        <mxCell id="gPXoR4ddcRcgQdC9vsEX-27" value="" style="ellipse;whiteSpace=wrap;html=1;aspect=fixed;fillColor=none;fontFamily=Times New Roman;" vertex="1" parent="1">
          <mxGeometry x="112.57" y="241.57" width="410" height="410" as="geometry" />
        </mxCell>
        <mxCell id="gPXoR4ddcRcgQdC9vsEX-26" value="" style="ellipse;whiteSpace=wrap;html=1;aspect=fixed;fillColor=none;strokeWidth=29;opacity=50;strokeColor=#CDEB8B;perimeterSpacing=0;fontFamily=Times New Roman;" vertex="1" parent="1">
          <mxGeometry x="126.71" y="255.71" width="381.72" height="381.72" as="geometry" />
        </mxCell>
        <mxCell id="gPXoR4ddcRcgQdC9vsEX-1" value="x" style="edgeStyle=none;orthogonalLoop=1;jettySize=auto;html=1;rounded=0;fillColor=#e51400;strokeColor=#FF0000;strokeWidth=3;fontColor=#FF0000;fontFamily=Times New Roman;fontSize=14;" edge="1" parent="1">
          <mxGeometry x="-0.1429" y="-20" width="100" relative="1" as="geometry">
            <mxPoint x="170" y="550" as="sourcePoint" />
            <mxPoint x="240" y="550" as="targetPoint" />
            <Array as="points" />
            <mxPoint as="offset" />
          </mxGeometry>
        </mxCell>
        <mxCell id="gPXoR4ddcRcgQdC9vsEX-2" value="y" style="edgeStyle=none;orthogonalLoop=1;jettySize=auto;html=1;rounded=0;fillColor=#e51400;strokeColor=#00B500;strokeWidth=3;fontColor=#00B500;fontFamily=Times New Roman;fontSize=14;endSize=6;labelBackgroundColor=none;" edge="1" parent="1">
          <mxGeometry x="-0.1429" y="20" width="100" relative="1" as="geometry">
            <mxPoint x="170" y="550" as="sourcePoint" />
            <mxPoint x="170" y="480" as="targetPoint" />
            <Array as="points" />
            <mxPoint as="offset" />
          </mxGeometry>
        </mxCell>
        <mxCell id="gPXoR4ddcRcgQdC9vsEX-11" value="$$\mathbf{x_1}$$" style="text;html=1;strokeColor=none;fillColor=none;align=center;verticalAlign=middle;whiteSpace=wrap;rounded=0;fontSize=16;fontFamily=Times New Roman;" vertex="1" parent="1">
          <mxGeometry x="250" y="385" width="60" height="30" as="geometry" />
        </mxCell>
        <mxCell id="gPXoR4ddcRcgQdC9vsEX-12" value="" style="group;rotation=13;fontFamily=Times New Roman;" vertex="1" connectable="0" parent="1">
          <mxGeometry x="290" y="400" width="80" height="80" as="geometry" />
        </mxCell>
        <mxCell id="gPXoR4ddcRcgQdC9vsEX-3" value="" style="ellipse;whiteSpace=wrap;html=1;aspect=fixed;rotation=13;fontFamily=Times New Roman;" vertex="1" parent="gPXoR4ddcRcgQdC9vsEX-12">
          <mxGeometry y="13.91304347826087" width="27.82608695652174" height="27.82608695652174" as="geometry" />
        </mxCell>
        <mxCell id="gPXoR4ddcRcgQdC9vsEX-4" value="" style="ellipse;whiteSpace=wrap;html=1;aspect=fixed;rotation=13;fontFamily=Times New Roman;" vertex="1" parent="gPXoR4ddcRcgQdC9vsEX-12">
          <mxGeometry x="33.391304347826086" y="21.565217391304348" width="27.82608695652174" height="27.82608695652174" as="geometry" />
        </mxCell>
        <mxCell id="gPXoR4ddcRcgQdC9vsEX-5" value="" style="ellipse;whiteSpace=wrap;html=1;aspect=fixed;rotation=13;fontFamily=Times New Roman;" vertex="1" parent="gPXoR4ddcRcgQdC9vsEX-12">
          <mxGeometry x="-7.6521739130434785" y="48" width="27.82608695652174" height="27.82608695652174" as="geometry" />
        </mxCell>
        <mxCell id="gPXoR4ddcRcgQdC9vsEX-6" value="" style="ellipse;whiteSpace=wrap;html=1;aspect=fixed;rotation=13;fontFamily=Times New Roman;" vertex="1" parent="gPXoR4ddcRcgQdC9vsEX-12">
          <mxGeometry x="25.73913043478261" y="55.65217391304348" width="27.82608695652174" height="27.82608695652174" as="geometry" />
        </mxCell>
        <mxCell id="gPXoR4ddcRcgQdC9vsEX-9" value="" style="edgeStyle=none;orthogonalLoop=1;jettySize=auto;html=1;rounded=0;fillColor=#e51400;strokeColor=#FF0000;strokeWidth=3;fontColor=#FF0000;fontFamily=Times New Roman;fontSize=14;" edge="1" parent="gPXoR4ddcRcgQdC9vsEX-12">
          <mxGeometry x="-0.1429" y="-20" width="100" relative="1" as="geometry">
            <mxPoint x="27.130434782608695" y="48.69565217391304" as="sourcePoint" />
            <mxPoint x="74.43478260869566" y="59.826086956521735" as="targetPoint" />
            <Array as="points" />
            <mxPoint as="offset" />
          </mxGeometry>
        </mxCell>
        <mxCell id="gPXoR4ddcRcgQdC9vsEX-10" value="" style="edgeStyle=none;orthogonalLoop=1;jettySize=auto;html=1;rounded=0;fillColor=#e51400;strokeColor=#00B500;strokeWidth=3;fontColor=#00B500;fontFamily=Times New Roman;fontSize=14;endSize=6;" edge="1" parent="gPXoR4ddcRcgQdC9vsEX-12">
          <mxGeometry x="0.2857" y="-14" width="100" relative="1" as="geometry">
            <mxPoint x="27.130434782608695" y="48.69565217391304" as="sourcePoint" />
            <mxPoint x="38.26086956521739" y="1.391304347826087" as="targetPoint" />
            <Array as="points" />
            <mxPoint as="offset" />
          </mxGeometry>
        </mxCell>
        <mxCell id="gPXoR4ddcRcgQdC9vsEX-20" value="$$\mathbf{x_2}$$" style="text;html=1;strokeColor=none;fillColor=none;align=center;verticalAlign=middle;whiteSpace=wrap;rounded=0;fontSize=16;fontFamily=Times New Roman;" vertex="1" parent="1">
          <mxGeometry x="420" y="260" width="60" height="30" as="geometry" />
        </mxCell>
        <mxCell id="gPXoR4ddcRcgQdC9vsEX-24" value="" style="ellipse;whiteSpace=wrap;html=1;fillColor=#ffcccc;strokeColor=#36393d;opacity=50;rotation=-40;fontFamily=Times New Roman;shadow=0;" vertex="1" parent="1">
          <mxGeometry x="340.99" y="246.36" width="400.25" height="38.83" as="geometry" />
        </mxCell>
        <mxCell id="gPXoR4ddcRcgQdC9vsEX-25" value="World frame" style="text;html=1;strokeColor=none;fillColor=none;align=center;verticalAlign=middle;whiteSpace=wrap;rounded=0;fontFamily=Times New Roman;fontSize=15;" vertex="1" parent="1">
          <mxGeometry x="180" y="510" width="110" height="30" as="geometry" />
        </mxCell>
        <mxCell id="gPXoR4ddcRcgQdC9vsEX-29" value="" style="endArrow=classic;html=1;rounded=0;exitX=0.5;exitY=0.51;exitDx=0;exitDy=0;exitPerimeter=0;entryX=0.899;entryY=0.797;entryDx=0;entryDy=0;entryPerimeter=0;strokeWidth=2;fontFamily=Times New Roman;" edge="1" parent="1" source="gPXoR4ddcRcgQdC9vsEX-28" target="gPXoR4ddcRcgQdC9vsEX-26">
          <mxGeometry width="50" height="50" relative="1" as="geometry">
            <mxPoint x="190" y="390" as="sourcePoint" />
            <mxPoint x="240" y="340" as="targetPoint" />
          </mxGeometry>
        </mxCell>
        <mxCell id="gPXoR4ddcRcgQdC9vsEX-30" value="$$\sqrt{(\mathbf{x_2 - x_1})^T (\mathbf{x_2 - x_1})}$$" style="text;html=1;strokeColor=none;fillColor=none;align=center;verticalAlign=middle;whiteSpace=wrap;rounded=0;fontFamily=Times New Roman;rotation=0;" vertex="1" parent="1">
          <mxGeometry x="351.71" y="450" width="143.43" height="40" as="geometry" />
        </mxCell>
        <mxCell id="gPXoR4ddcRcgQdC9vsEX-48" value="" style="ellipse;whiteSpace=wrap;html=1;aspect=fixed;fillColor=none;strokeWidth=1;strokeColor=default;perimeterSpacing=0;fontFamily=Times New Roman;dashed=1;" vertex="1" parent="1">
          <mxGeometry x="126.55999999999997" y="256.00000000000006" width="381.72" height="381.72" as="geometry" />
        </mxCell>
        <mxCell id="gPXoR4ddcRcgQdC9vsEX-34" value="" style="group;rotation=-45;fontFamily=Times New Roman;" vertex="1" connectable="0" parent="1">
          <mxGeometry x="515" y="206" width="44.86" height="50" as="geometry" />
        </mxCell>
        <mxCell id="gPXoR4ddcRcgQdC9vsEX-31" value="" style="edgeStyle=none;orthogonalLoop=1;jettySize=auto;html=1;rounded=0;fillColor=#e51400;strokeColor=#FF0000;strokeWidth=3;fontColor=#FF0000;fontFamily=Times New Roman;fontSize=14;" edge="1" parent="gPXoR4ddcRcgQdC9vsEX-34">
          <mxGeometry x="-0.1429" y="-20" width="100" relative="1" as="geometry">
            <mxPoint x="25" y="59" as="sourcePoint" />
            <mxPoint x="56" y="27" as="targetPoint" />
            <Array as="points" />
            <mxPoint as="offset" />
          </mxGeometry>
        </mxCell>
        <mxCell id="gPXoR4ddcRcgQdC9vsEX-32" value="" style="edgeStyle=none;orthogonalLoop=1;jettySize=auto;html=1;rounded=0;fillColor=#e51400;strokeColor=#00B500;strokeWidth=3;fontColor=#00B500;fontFamily=Times New Roman;fontSize=14;endSize=6;labelBackgroundColor=none;" edge="1" parent="gPXoR4ddcRcgQdC9vsEX-34">
          <mxGeometry x="-0.1429" y="20" width="100" relative="1" as="geometry">
            <mxPoint x="25" y="59" as="sourcePoint" />
            <mxPoint x="-11" y="23" as="targetPoint" />
            <Array as="points" />
            <mxPoint as="offset" />
          </mxGeometry>
        </mxCell>
        <mxCell id="gPXoR4ddcRcgQdC9vsEX-13" value="" style="group;rotation=-58;fontFamily=Times New Roman;opacity=0;" vertex="1" connectable="0" parent="1">
          <mxGeometry x="420" y="290" width="157.27999999999997" height="112.35000000000002" as="geometry" />
        </mxCell>
        <mxCell id="gPXoR4ddcRcgQdC9vsEX-14" value="" style="ellipse;whiteSpace=wrap;html=1;aspect=fixed;rotation=-58;fontFamily=Times New Roman;" vertex="1" parent="gPXoR4ddcRcgQdC9vsEX-13">
          <mxGeometry x="10.298550724637682" y="32.34782608695652" width="27.594202898550726" height="27.594202898550726" as="geometry" />
        </mxCell>
        <mxCell id="gPXoR4ddcRcgQdC9vsEX-15" value="" style="ellipse;whiteSpace=wrap;html=1;aspect=fixed;rotation=-58;fontFamily=Times New Roman;" vertex="1" parent="gPXoR4ddcRcgQdC9vsEX-13">
          <mxGeometry x="30.255072463768116" y="2.434782608695652" width="27.594202898550726" height="27.594202898550726" as="geometry" />
        </mxCell>
        <mxCell id="gPXoR4ddcRcgQdC9vsEX-16" value="" style="ellipse;whiteSpace=wrap;html=1;aspect=fixed;rotation=-58;fontFamily=Times New Roman;" vertex="1" parent="gPXoR4ddcRcgQdC9vsEX-13">
          <mxGeometry x="41.34202898550725" y="50.43478260869565" width="27.594202898550726" height="27.594202898550726" as="geometry" />
        </mxCell>
        <mxCell id="gPXoR4ddcRcgQdC9vsEX-17" value="" style="ellipse;whiteSpace=wrap;html=1;aspect=fixed;rotation=-58;fontFamily=Times New Roman;" vertex="1" parent="gPXoR4ddcRcgQdC9vsEX-13">
          <mxGeometry x="61.298550724637686" y="21.217391304347824" width="27.594202898550726" height="27.594202898550726" as="geometry" />
        </mxCell>
        <mxCell id="gPXoR4ddcRcgQdC9vsEX-18" value="" style="edgeStyle=none;orthogonalLoop=1;jettySize=auto;html=1;rounded=0;fillColor=#e51400;strokeColor=#FF0000;strokeWidth=3;fontColor=#FF0000;fontFamily=Times New Roman;fontSize=14;" edge="1" parent="gPXoR4ddcRcgQdC9vsEX-13">
          <mxGeometry x="-0.1429" y="-20" width="100" relative="1" as="geometry">
            <mxPoint x="50.21159420289855" y="40.69565217391304" as="sourcePoint" />
            <mxPoint x="78.29855072463768" y="-1.0434782608695656" as="targetPoint" />
            <Array as="points" />
            <mxPoint as="offset" />
          </mxGeometry>
        </mxCell>
        <mxCell id="gPXoR4ddcRcgQdC9vsEX-19" value="" style="edgeStyle=none;orthogonalLoop=1;jettySize=auto;html=1;rounded=0;fillColor=#e51400;strokeColor=#00B500;strokeWidth=3;fontColor=#00B500;fontFamily=Times New Roman;fontSize=14;endSize=6;" edge="1" parent="gPXoR4ddcRcgQdC9vsEX-13">
          <mxGeometry x="0.2857" y="-14" width="100" relative="1" as="geometry">
            <mxPoint x="50.95072463768116" y="40" as="sourcePoint" />
            <mxPoint x="7.342028985507246" y="14.260869565217392" as="targetPoint" />
            <Array as="points" />
            <mxPoint as="offset" />
          </mxGeometry>
        </mxCell>
        <mxCell id="gPXoR4ddcRcgQdC9vsEX-36" value="UVDAR" style="text;html=1;strokeColor=none;fillColor=none;align=center;verticalAlign=middle;whiteSpace=wrap;rounded=0;fontFamily=Times New Roman;fontSize=14;" vertex="1" parent="1">
          <mxGeometry x="548.86" y="150" width="60" height="30" as="geometry" />
        </mxCell>
        <mxCell id="gPXoR4ddcRcgQdC9vsEX-37" value="UWB" style="text;html=1;strokeColor=none;fillColor=none;align=center;verticalAlign=middle;whiteSpace=wrap;rounded=0;fontFamily=Times New Roman;fontSize=14;" vertex="1" parent="1">
          <mxGeometry x="205" y="220.17000000000002" width="60" height="30" as="geometry" />
        </mxCell>
        <mxCell id="gPXoR4ddcRcgQdC9vsEX-35" value="" style="ellipse;whiteSpace=wrap;html=1;fillColor=#85BAFF;strokeColor=#36393d;rotation=-40;fillStyle=solid;strokeWidth=1;fontFamily=Times New Roman;opacity=90;" vertex="1" parent="1">
          <mxGeometry x="473" y="284.19" width="30" height="50" as="geometry" />
        </mxCell>
        <mxCell id="gPXoR4ddcRcgQdC9vsEX-40" style="edgeStyle=orthogonalEdgeStyle;orthogonalLoop=1;jettySize=auto;html=1;exitX=0.5;exitY=0;exitDx=0;exitDy=0;entryX=1;entryY=0.5;entryDx=0;entryDy=0;curved=1;" edge="1" parent="1" source="gPXoR4ddcRcgQdC9vsEX-38" target="gPXoR4ddcRcgQdC9vsEX-35">
          <mxGeometry relative="1" as="geometry" />
        </mxCell>
        <mxCell id="gPXoR4ddcRcgQdC9vsEX-38" value="&lt;font style=&quot;font-size: 14px;&quot;&gt;Fusion&lt;/font&gt;" style="text;html=1;strokeColor=none;fillColor=none;align=center;verticalAlign=middle;whiteSpace=wrap;rounded=0;fontFamily=Times New Roman;fontSize=14;" vertex="1" parent="1">
          <mxGeometry x="570" y="331.18" width="60" height="30" as="geometry" />
        </mxCell>
        <mxCell id="gPXoR4ddcRcgQdC9vsEX-45" value="" style="group" vertex="1" connectable="0" parent="1">
          <mxGeometry x="470" y="288.84" width="38.27984395898352" height="20.480000000000018" as="geometry" />
        </mxCell>
        <mxCell id="gPXoR4ddcRcgQdC9vsEX-42" value="" style="edgeStyle=none;orthogonalLoop=1;jettySize=auto;html=1;rounded=0;fillColor=#e51400;strokeColor=#FF0000;strokeWidth=2;fontColor=#FF0000;fontFamily=Times New Roman;fontSize=14;" edge="1" parent="gPXoR4ddcRcgQdC9vsEX-45">
          <mxGeometry x="-0.1429" y="-20" width="100" relative="1" as="geometry">
            <mxPoint x="18.93075791350867" y="20.480000000000018" as="sourcePoint" />
            <mxPoint x="38.27984395898352" as="targetPoint" />
            <Array as="points" />
            <mxPoint as="offset" />
          </mxGeometry>
        </mxCell>
        <mxCell id="gPXoR4ddcRcgQdC9vsEX-43" value="" style="edgeStyle=none;orthogonalLoop=1;jettySize=auto;html=1;rounded=0;fillColor=#e51400;strokeColor=#00B500;strokeWidth=2;fontColor=#00B500;fontFamily=Times New Roman;fontSize=14;endSize=6;labelBackgroundColor=none;" edge="1" parent="gPXoR4ddcRcgQdC9vsEX-45">
          <mxGeometry x="-0.1429" y="20" width="100" relative="1" as="geometry">
            <mxPoint x="18.93075791350867" y="20.480000000000018" as="sourcePoint" />
            <mxPoint y="1.160000000000025" as="targetPoint" />
            <Array as="points" />
            <mxPoint as="offset" />
          </mxGeometry>
        </mxCell>
      </root>
    </mxGraphModel>
  </diagram>
</mxfile>
